<svg xmlns="http://www.w3.org/2000/svg"  viewBox="0 0 100 100" width="512px" height="512px"><circle cx="77" cy="13" r="1" fill="#f1bc19"/><circle cx="50" cy="50" r="37" fill="#e6edb7"/><circle cx="83" cy="15" r="4" fill="#f1bc19"/><circle cx="87" cy="24" r="2" fill="#9f8066"/><circle cx="81" cy="76" r="2" fill="#fbcd59"/><circle cx="15" cy="63" r="4" fill="#fbcd59"/><circle cx="25" cy="87" r="2" fill="#9f8066"/><circle cx="19.5" cy="43.5" r="2.5" fill="#fff"/><circle cx="79.5" cy="33.5" r="1.5" fill="#fff"/><g><path fill="#e1e0d8" d="M69.525,72H30.475C27.451,72,25,69.549,25,66.525V34.475C25,31.451,27.451,29,30.475,29h39.049 C72.549,29,75,31.451,75,34.475v32.049C75,69.549,72.549,72,69.525,72z"/><rect width="50" height="27" x="25" y="38" fill="#8889b9"/><polygon fill="#edf7f5" points="41.061,60.061 38.939,57.939 45.879,51 38.939,44.061 41.061,41.939 50.121,51"/><rect width="12" height="3" x="50.5" y="57.458" fill="#edf7f5"/><path fill="#472b29" d="M41.061,60.311c-0.064,0-0.128-0.024-0.177-0.073l-2.121-2.121c-0.098-0.098-0.098-0.256,0-0.354 L45.525,51l-4.106-4.106c-0.098-0.098-0.098-0.256,0-0.354c0.098-0.098,0.256-0.098,0.354,0l4.283,4.283 c0.098,0.098,0.098,0.256,0,0.354l-6.763,6.763l1.768,1.768l1.792-1.792c0.098-0.098,0.256-0.098,0.354,0 c0.098,0.098,0.098,0.256,0,0.354l-1.969,1.969C41.188,60.286,41.125,60.311,41.061,60.311z"/><path fill="#472b29" d="M44.686,56.686c-0.064,0-0.128-0.024-0.177-0.073c-0.098-0.098-0.098-0.256,0-0.354L49.768,51 l-1.665-1.665c-0.098-0.098-0.098-0.256,0-0.354c0.098-0.098,0.256-0.098,0.354,0l1.842,1.842c0.098,0.098,0.098,0.256,0,0.354 l-5.436,5.436C44.813,56.661,44.75,56.686,44.686,56.686z"/><path fill="#472b29" d="M46.654,47.783c-0.064,0-0.128-0.024-0.177-0.073l-5.417-5.417l-1.768,1.768l0.886,0.886 c0.098,0.098,0.098,0.256,0,0.354c-0.098,0.098-0.256,0.098-0.354,0l-1.063-1.063c-0.098-0.098-0.098-0.256,0-0.354l2.121-2.121 c0.098-0.098,0.256-0.098,0.354,0l5.594,5.594c0.098,0.098,0.098,0.256,0,0.354C46.782,47.759,46.719,47.783,46.654,47.783z"/><path fill="#472b29" d="M58.813,57.75H54.75c-0.138,0-0.25-0.112-0.25-0.25s0.112-0.25,0.25-0.25h4.063 c0.138,0,0.25,0.112,0.25,0.25S58.95,57.75,58.813,57.75z"/><path fill="#472b29" d="M62.5,60.75h-12c-0.138,0-0.25-0.112-0.25-0.25v-3c0-0.138,0.112-0.25,0.25-0.25h2.063 c0.138,0,0.25,0.112,0.25,0.25s-0.112,0.25-0.25,0.25H50.75v2.5h11.5v-2.5h-1.438c-0.138,0-0.25-0.112-0.25-0.25 s0.112-0.25,0.25-0.25H62.5c0.138,0,0.25,0.112,0.25,0.25v3C62.75,60.638,62.638,60.75,62.5,60.75z"/><path fill="#472b29" d="M69.525,30.4c2.247,0,4.075,1.829,4.075,4.076v32.049c0,2.247-1.828,4.076-4.075,4.076H30.475 c-2.247,0-4.075-1.829-4.075-4.076V34.476c0-2.247,1.828-4.076,4.075-4.076H69.525 M69.525,29H30.475 C27.451,29,25,31.451,25,34.476v32.049C25,69.549,27.451,72,30.475,72h39.049C72.549,72,75,69.549,75,66.524V34.476 C75,31.451,72.549,29,69.525,29L69.525,29z"/><path fill="#472b29" d="M51.5,39h-26c-0.276,0-0.5-0.224-0.5-0.5s0.224-0.5,0.5-0.5h26c0.276,0,0.5,0.224,0.5,0.5 S51.776,39,51.5,39z"/><g><path fill="#472b29" d="M59.5,39h-5c-0.276,0-0.5-0.224-0.5-0.5s0.224-0.5,0.5-0.5h5c0.276,0,0.5,0.224,0.5,0.5 S59.776,39,59.5,39z"/></g><g><path fill="#472b29" d="M74.5,39h-12c-0.276,0-0.5-0.224-0.5-0.5s0.224-0.5,0.5-0.5h12c0.276,0,0.5,0.224,0.5,0.5 S74.776,39,74.5,39z"/></g><g><path fill="#472b29" d="M74.5,65h-12c-0.276,0-0.5-0.224-0.5-0.5s0.224-0.5,0.5-0.5h12c0.276,0,0.5,0.224,0.5,0.5 S74.776,65,74.5,65z"/></g><g><path fill="#472b29" d="M58.5,65h-32c-0.276,0-0.5-0.224-0.5-0.5s0.224-0.5,0.5-0.5h32c0.276,0,0.5,0.224,0.5,0.5 S58.776,65,58.5,65z"/></g><g><circle cx="32.5" cy="34.5" r="1.5" fill="#ee3e54"/><path fill="#472b29" d="M32.5,36.25c-0.965,0-1.75-0.785-1.75-1.75s0.785-1.75,1.75-1.75s1.75,0.785,1.75,1.75 S33.465,36.25,32.5,36.25z M32.5,33.25c-0.689,0-1.25,0.561-1.25,1.25s0.561,1.25,1.25,1.25s1.25-0.561,1.25-1.25 S33.189,33.25,32.5,33.25z"/></g><g><circle cx="38.5" cy="34.5" r="1.5" fill="#88ae45"/><path fill="#472b29" d="M38.5,36.25c-0.965,0-1.75-0.785-1.75-1.75s0.785-1.75,1.75-1.75s1.75,0.785,1.75,1.75 S39.465,36.25,38.5,36.25z M38.5,33.25c-0.689,0-1.25,0.561-1.25,1.25s0.561,1.25,1.25,1.25s1.25-0.561,1.25-1.25 S39.189,33.25,38.5,33.25z"/></g></g></svg>